<svg width="18" height="18" viewBox="0 0 18 18" fill="none" xmlns="http://www.w3.org/2000/svg">
<circle cx="9" cy="9" r="9" fill="#F47521"/>
<path d="M6.4729 12.6172C6.4729 12.1968 6.57048 11.8177 6.76565 11.48C6.96081 11.1347 7.19727 10.8344 7.475 10.5792C7.76024 10.324 8.13181 10.0275 8.5897 9.68969C8.98003 9.39694 9.28779 9.15299 9.51298 8.95782C9.74568 8.75515 9.94084 8.54122 10.0985 8.31603C10.3087 8.01577 10.4137 7.68174 10.4137 7.31393C10.4137 7.02868 10.3162 6.78473 10.121 6.58206C9.93334 6.37188 9.63683 6.26679 9.23149 6.26679C8.79612 6.26679 8.46959 6.37188 8.25191 6.58206C8.04173 6.78473 7.93664 7.08123 7.93664 7.47156V7.9332H6.59676C6.56673 7.80559 6.55172 7.65547 6.55172 7.48282C6.55172 6.70216 6.81069 6.11666 7.32863 5.72633C7.84657 5.336 8.50337 5.14083 9.29905 5.14083C9.91457 5.14083 10.4062 5.25718 10.774 5.48988C11.1494 5.72258 11.4121 6.01157 11.5622 6.35687C11.7123 6.69465 11.7874 7.0437 11.7874 7.404C11.7874 7.8769 11.6711 8.30852 11.4384 8.69885C11.2132 9.08168 10.9429 9.4082 10.6277 9.67843C10.3124 9.94866 9.90706 10.2639 9.41164 10.6242C9.21648 10.7593 9.02507 10.8982 8.83741 11.0408C8.64975 11.1835 8.49962 11.3111 8.38702 11.4237C8.25942 11.5513 8.16934 11.6676 8.1168 11.7727H11.8324V13H6.4729V12.6172Z" fill="white"/>
</svg>
