<svg width="23" height="19" viewBox="0 0 23 19" fill="none" xmlns="http://www.w3.org/2000/svg">
<path d="M20.8937 3.35987C20.1606 3.68566 19.3711 3.90508 18.5433 4.00481C19.3894 3.49783 20.036 2.69664 20.3435 1.74086C19.5523 2.20961 18.6763 2.55037 17.7438 2.73321C16.9991 1.93701 15.9336 1.44 14.7584 1.44C12.1155 1.44 10.174 3.90508 10.7708 6.4649C7.37151 6.29369 4.35458 4.66471 2.33664 2.18966C1.26451 4.02808 1.78146 6.43498 3.60325 7.65339C2.93338 7.63178 2.30339 7.44727 1.75154 7.14142C1.70666 9.03636 3.06636 10.8099 5.03443 11.2056C4.4593 11.3618 3.82765 11.3984 3.18603 11.2754C3.70631 12.901 5.22059 14.0829 7.00915 14.1161C5.28542 15.4658 3.11955 16.0692 0.947021 15.8132C2.75884 16.9751 4.9081 17.6517 7.21859 17.6517C14.8183 17.6517 19.1101 11.2338 18.8508 5.47754C19.652 4.90241 20.3452 4.18101 20.8937 3.35987Z" fill="#141414"/>
<path d="M20.8937 3.35987C20.1606 3.68566 19.3711 3.90508 18.5433 4.00481C19.3894 3.49783 20.036 2.69664 20.3435 1.74086C19.5523 2.20961 18.6763 2.55037 17.7438 2.73321C16.9991 1.93701 15.9336 1.44 14.7584 1.44C12.1155 1.44 10.174 3.90508 10.7708 6.4649C7.37151 6.29369 4.35458 4.66471 2.33664 2.18966C1.26451 4.02808 1.78146 6.43498 3.60325 7.65339C2.93338 7.63178 2.30339 7.44727 1.75154 7.14142C1.70666 9.03636 3.06636 10.8099 5.03443 11.2056C4.4593 11.3618 3.82765 11.3984 3.18603 11.2754C3.70631 12.901 5.22059 14.0829 7.00915 14.1161C5.28542 15.4658 3.11955 16.0692 0.947021 15.8132C2.75884 16.9751 4.9081 17.6517 7.21859 17.6517C14.8183 17.6517 19.1101 11.2338 18.8508 5.47754C19.652 4.90241 20.3452 4.18101 20.8937 3.35987Z" stroke="black"/>
<path d="M20.8937 3.35987C20.1606 3.68566 19.3711 3.90508 18.5433 4.00481C19.3894 3.49783 20.036 2.69664 20.3435 1.74086C19.5523 2.20961 18.6763 2.55037 17.7438 2.73321C16.9991 1.93701 15.9336 1.44 14.7584 1.44C12.1155 1.44 10.174 3.90508 10.7708 6.4649C7.37151 6.29369 4.35458 4.66471 2.33664 2.18966C1.26451 4.02808 1.78146 6.43498 3.60325 7.65339C2.93338 7.63178 2.30339 7.44727 1.75154 7.14142C1.70666 9.03636 3.06636 10.8099 5.03443 11.2056C4.4593 11.3618 3.82765 11.3984 3.18603 11.2754C3.70631 12.901 5.22059 14.0829 7.00915 14.1161C5.28542 15.4658 3.11955 16.0692 0.947021 15.8132C2.75884 16.9751 4.9081 17.6517 7.21859 17.6517C14.8183 17.6517 19.1101 11.2338 18.8508 5.47754C19.652 4.90241 20.3452 4.18101 20.8937 3.35987Z" stroke="black" stroke-opacity="0.2"/>
</svg>
